HIERARCHY
ROOT hip
{
	OFFSET 0.000000 0.000000 0.000000 
	CHANNELS 6 Xposition Yposition Zposition Xrotation Zrotation Yrotation
	JOINT abdomen
	{
		OFFSET 0.000000 3.402643 0.000000 
		CHANNELS 3 Xrotation Zrotation Yrotation
		JOINT chest
		{
			OFFSET 0.000000 8.438565 -0.680529 
			CHANNELS 3 Xrotation Zrotation Yrotation
			JOINT neck
			{
				OFFSET 0.000000 10.207942 -0.272212 
				CHANNELS 3 Xrotation Zrotation Yrotation
				JOINT head
				{
					OFFSET 0.000000 3.130431 0.000000 
					CHANNELS 3 Xrotation Zrotation Yrotation
					End Site
					{
						OFFSET 0.000000 3.130435 0.000000 
					}
				}
			}
			JOINT lCollar
			{
				OFFSET 3.470700 6.669187 -0.816635 
				CHANNELS 3 Yrotation Zrotation Xrotation
				JOINT lShldr
				{
					OFFSET 3.198488 0.000000 0.000000 
					CHANNELS 3 Zrotation Yrotation Xrotation
					JOINT lForeArm
					{
						OFFSET 10.139888 0.000000 0.000000 
						CHANNELS 3 Yrotation Zrotation Xrotation
						JOINT lHand
						{
							OFFSET 8.370511 0.000000 0.000000 
							CHANNELS 3 Zrotation Yrotation Xrotation
							End Site
							{
								OFFSET 4.083176 0.000000 0.000000 
							}
						}
					}
				}
			}
			JOINT rCollar
			{
				OFFSET -3.470700 6.669187 -0.816635 
				CHANNELS 3 Yrotation Zrotation Xrotation
				JOINT rShldr
				{
					OFFSET -3.198488 0.000000 0.000000 
					CHANNELS 3 Zrotation Yrotation Xrotation
					JOINT rForeArm
					{
						OFFSET -10.139888 0.000000 0.000000 
						CHANNELS 3 Yrotation Zrotation Xrotation
						JOINT rHand
						{
							OFFSET -8.370511 0.000000 0.000000 
							CHANNELS 3 Zrotation Yrotation Xrotation
							End Site
							{
								OFFSET -4.083176 0.000000 0.000000 
							}
						}
					}
				}
			}
		}
	}
	JOINT lThigh
	{
		OFFSET 5.308129 -1.633274 1.361059 
		CHANNELS 3 Xrotation Zrotation Yrotation
		JOINT lShin
		{
			OFFSET -2.041588 -20.007561 0.000000 
			CHANNELS 3 Xrotation Zrotation Yrotation
			JOINT lFoot
			{
				OFFSET 0.000000 -19.190928 -1.224953 
				CHANNELS 3 Xrotation Yrotation Zrotation
				End Site
				{
					OFFSET 0.000000 -2.449906 4.627600 
				}
			}
		}
	}
	JOINT rThigh
	{
		OFFSET -5.308129 -1.633274 1.361059 
		CHANNELS 3 Xrotation Zrotation Yrotation
		JOINT rShin
		{
			OFFSET 2.041588 -20.007561 0.000000 
			CHANNELS 3 Xrotation Zrotation Yrotation
			JOINT rFoot
			{
				OFFSET 0.000000 -19.190928 -1.224953 
				CHANNELS 3 Xrotation Yrotation Zrotation
				End Site
				{
					OFFSET 0.000000 -2.449906 4.627600 
				}
			}
		}
	}
}
MOTION
Frames: 14
Frame Time: 0.033333
-11.529839 37.729839 78.561363 -8.623047 -5.986328 127.792976 30.263674 8.847656 2.716346 -14.414064 6.562500 0.683594 -19.697266 -0.361328 25.664003 14.589844 -18.291016 24.371935 7.763672 19.931641 0.934171 -53.095703 -62.158203 12.753908 -110.068352 -1.298828 4.277565 13.535156 -7.421875 -1.796875 8.613282 1.640625 -0.244420 58.925785 40.458984 -4.798350 143.427734 2.919922 -26.171879 -27.470703 17.382811 -8.349608 -51.864891 37.566959 35.834923 79.310623 1.417502 -3.789180 -32.406376 31.739111 12.073010 -25.817827 -31.420547 -14.442550 58.947613 -0.868985 3.151077 -25.536116 -2.465433 5.965348 
-11.265296 38.078590 77.719246 -8.798828 -4.921875 131.650391 28.720707 9.326173 2.296504 -12.978517 8.486328 0.556641 -19.863281 -2.294922 24.599220 15.107421 -17.763670 23.193361 8.457032 19.453127 0.944013 -54.404293 -64.248047 12.588861 -108.789063 -1.220703 5.381068 13.525391 -7.285156 -1.602799 8.955078 0.429688 -0.058594 57.031250 43.007813 -9.511719 142.939453 3.017578 -28.740749 -28.554688 16.904299 -8.649503 -48.856262 35.210102 36.450775 78.413284 1.250985 -3.901761 -32.229671 31.060829 11.691374 -19.520584 -31.275023 -17.848734 55.276470 -0.185387 3.022372 -24.427450 -4.427046 5.093670 
-10.939277 38.445152 76.584213 -8.798828 -4.052734 137.285156 26.640625 9.462891 1.788715 -12.265625 9.355469 0.411744 -20.224609 -2.285156 22.148438 17.392576 -17.763670 20.390625 9.375000 20.419924 0.986328 -56.933594 -67.617188 13.994141 -107.382813 -1.250000 5.322266 13.349609 -7.285156 -1.591797 7.724609 0.078125 -0.009766 56.406250 45.341801 -15.156251 142.236328 3.193359 -32.753910 -26.376955 14.716797 -6.914062 -46.766045 30.884295 34.689945 76.314011 1.085359 -3.744259 -33.924011 28.552855 11.347520 -12.314215 -29.942654 -20.048525 52.108913 -0.195412 3.040512 -21.749500 -9.997105 2.980317 
-10.665470 38.791985 75.261848 -8.437499 -3.525390 144.647827 24.179688 9.091797 1.144121 -12.617188 9.707031 0.226256 -20.390625 -1.767578 18.622746 20.380859 -17.587891 16.513672 9.814453 22.451174 1.138848 -60.878902 -71.123047 16.230995 -105.839844 -1.308594 4.707032 12.626953 -6.953125 -1.552734 6.494141 0.429688 -0.048828 55.595703 47.744141 -20.647066 141.904297 3.222656 -34.668522 -24.960938 11.474610 -5.115243 -45.972363 23.909187 29.640965 74.216263 1.085916 -3.651528 -35.381096 27.571310 11.887691 -7.939473 -26.825363 -16.620289 52.119907 -0.473603 3.095293 -17.254360 -20.951777 0.256197 
-10.412237 39.050152 73.850952 -7.382812 -2.998047 152.567642 22.382811 8.242188 0.908203 -12.441406 9.531250 0.224609 -20.751953 -1.943359 14.228517 22.841799 -16.533203 11.774564 10.654297 24.726563 1.308594 -61.386723 -75.039063 16.445311 -104.160156 -1.289063 3.027344 13.857421 -6.748047 -1.621094 5.449219 1.484375 -0.146737 52.636719 50.917969 -26.799061 140.078125 3.183594 -33.730469 -23.388672 9.589845 -3.924153 -44.447395 16.644993 22.829967 72.285500 0.920949 -3.684318 -36.736519 27.538746 12.582421 -6.337247 -23.596159 -11.056461 57.031940 -0.369268 3.007214 -9.292490 -31.286963 0.992437 
-10.057347 39.208828 72.419479 -5.458984 -2.285156 160.487885 21.621094 6.679688 0.654297 -12.441406 9.531250 0.576172 -20.214846 -2.646484 9.833984 24.248047 -14.765624 7.204543 11.259765 26.250000 1.318359 -61.132809 -80.087891 15.615383 -100.136719 -1.357422 2.587901 14.892577 -6.054688 -1.503906 5.976563 1.650391 -0.175781 48.300781 53.583984 -34.230423 137.246094 3.154297 -31.924370 -22.851563 7.763673 -3.201804 -41.428829 10.835421 17.649500 70.890976 0.754844 -3.745950 -38.052227 26.468851 12.552275 -8.612600 -21.558203 -8.410625 67.725616 -1.239930 3.290772 -1.769982 -31.229837 5.166731 
-9.557372 39.342243 71.119987 -3.876953 -1.767578 167.861328 21.220703 5.273437 0.429688 -12.265625 9.707032 0.939147 -20.224609 -4.052734 5.625000 25.126953 -12.490232 3.154297 13.193360 26.484375 1.216348 -55.498047 -84.414063 7.705122 -95.361328 -1.250000 3.613494 13.691407 -7.099610 -1.612535 6.845704 0.429688 -0.048901 46.650391 56.494141 -39.082031 133.574219 3.183594 -31.513670 -21.679686 6.660156 -2.508633 -38.520271 7.634386 13.447397 70.012573 0.745167 -3.721972 -37.982864 24.313253 11.340019 -12.977783 -19.939299 -9.525643 77.733376 -1.767558 3.289139 -3.118902 -16.491087 5.582712 
-8.948885 39.534485 69.968346 176.835953 -178.769531 -5.986538 21.171873 4.238281 0.878906 -12.617188 9.179688 1.456636 -20.224609 -5.634766 2.109375 25.664063 -10.029297 -0.214844 14.736329 26.406250 1.450736 -46.181641 -86.425781 -4.384765 -90.644531 -1.298828 2.861328 13.408203 -8.271484 -1.964296 7.724609 -2.031250 0.107422 46.396484 59.687500 -41.104851 128.007813 3.037110 -29.727079 -21.142580 6.513672 -2.480469 -36.517117 6.989885 10.709763 69.503273 0.579901 -3.625598 -37.100159 20.922903 8.635325 -19.977688 -19.761372 -12.624140 85.629471 -2.294747 3.282196 -5.811450 -6.432649 6.183371 
-8.286263 39.806610 68.920273 177.011734 -178.769531 -1.592007 21.455078 3.027344 1.992188 -13.154297 8.662110 2.841797 -20.400391 -8.261718 -0.001403 26.191406 -6.865235 -3.876954 15.126953 25.312498 1.226295 -47.275391 -86.474609 -6.679670 -85.019531 -1.328125 3.369367 14.892577 -9.199219 -2.373047 8.759767 -5.410157 0.137639 46.074219 63.095703 -42.325275 120.742188 3.007812 -28.593748 -20.996094 6.982422 -2.635530 -34.978485 7.187060 9.096466 67.562553 0.414349 -3.640855 -35.392830 18.834677 6.074045 -30.396313 -20.552280 -14.425645 90.010681 -2.997652 3.267438 -9.621166 -9.585169 4.928412 
-7.538829 40.069588 67.887230 177.187515 -178.593750 1.747807 22.031250 1.865234 4.218727 -13.349610 7.255859 3.710938 -21.621094 -9.853516 -2.853234 26.718750 -4.404297 -6.524187 16.318359 23.994143 1.216732 -46.142574 -88.369141 -11.962886 -77.480469 -1.318359 3.037109 13.447266 -9.111328 -2.128906 9.785157 -8.242188 0.372494 42.119141 66.582031 -46.093750 110.361328 3.017578 -30.967312 -18.554689 7.626953 -2.529297 -32.426697 7.498080 8.486784 65.975006 0.580246 -3.625596 -35.874615 16.067583 4.801230 -41.264698 -20.884979 -11.862101 88.784225 -2.480246 3.402719 -12.843339 -9.720015 4.421055 
-6.659903 40.224415 66.840485 177.187515 -178.769531 5.790806 22.666016 1.591797 5.234375 -13.359374 5.322266 4.932547 -22.158203 -10.556643 -5.802570 26.708984 -2.646484 -9.150390 17.109377 23.173828 1.148501 -24.316410 -91.044922 -36.679688 -66.943359 -1.416016 3.212891 12.109375 -7.500000 -1.523438 10.097657 -10.205079 0.431418 37.060547 70.361328 -50.684158 96.015625 3.105469 -34.599606 -16.425781 7.939454 -2.255859 -31.597801 8.406864 6.736519 64.928619 0.424924 -3.499075 -34.919540 14.656558 3.013607 -49.196518 -20.389238 -7.029633 80.718475 -1.943233 3.254846 -12.931550 -4.290769 5.848389 
-5.621460 40.217674 65.713501 -2.285156 -0.537109 -168.583969 23.544920 2.226563 5.585938 -14.082031 3.925782 4.892579 -22.509766 -10.205079 -8.789062 26.884766 -1.582031 -11.611329 16.259766 22.284239 1.090381 -53.369141 -94.580078 -4.472655 -51.376953 -1.533203 -0.702864 11.835938 -4.111328 -0.820313 9.218750 -11.943358 0.556641 27.382813 73.974609 -60.937500 76.523438 3.398438 -42.822845 -10.996093 5.283203 -1.102616 -31.955830 9.636072 4.724523 66.165527 0.238957 -3.490214 -33.379097 13.013228 1.727547 -52.702423 -20.047947 -1.529826 66.849815 -1.064326 3.349408 -8.935757 2.402796 7.091845 
-4.395103 39.960232 64.430122 -1.240234 0.527344 -160.488281 24.511721 3.398438 4.639251 -13.730470 3.388672 3.496093 -23.906250 -9.150390 -11.280849 27.060545 -0.537109 -13.720725 14.794922 20.966797 0.973068 -64.853516 -101.943359 22.031462 -37.304688 -2.675781 -21.454618 12.099608 4.570313 0.732422 8.505859 -12.812500 0.546875 4.726562 74.306641 -81.269531 54.140625 3.447266 -46.757809 -5.361328 -5.449219 0.252979 -33.794044 12.224590 3.886157 68.608315 0.746193 -3.638560 -31.492496 13.260056 0.793389 -50.080826 -20.398281 4.183102 49.304638 -0.322313 2.688553 4.314017 12.083441 6.076510 
-3.001649 39.284256 62.875103 0.703125 1.757813 -150.654297 25.351563 4.882813 2.509766 -12.324219 3.554688 0.908203 -26.542967 -7.216797 -13.917243 27.060545 0.341797 -15.478503 14.248047 20.146486 0.875543 -70.195313 -111.386719 51.582703 -31.259768 -3.271485 -40.224606 15.820313 10.527343 2.658034 8.330078 -12.822266 0.509980 -19.599609 68.095703 -93.936256 38.867188 3.613281 -54.356083 -6.210938 -10.507813 0.751953 -37.678226 15.572762 3.679956 73.358856 0.901652 -3.746498 -29.582884 15.189883 1.909705 -45.136684 -20.222878 13.824464 38.392624 0.043188 2.737650 12.303138 12.903087 4.390780 
